<?xml version="1.0" standalone="no"?>
<!DOCTYPE svg PUBLIC "-//W3C//DTD SVG 20010904//EN"
 "http://www.w3.org/TR/2001/REC-SVG-20010904/DTD/svg10.dtd">
<svg version="1.0" xmlns="http://www.w3.org/2000/svg"
 width="700.000000pt" height="700.000000pt" viewBox="0 0 700.000000 700.000000"
 preserveAspectRatio="xMidYMid meet">
<metadata>
Created by potrace 1.11, written by Peter Selinger 2001-2013
</metadata>
<g transform="translate(0.000000,700.000000) scale(0.100000,-0.100000)"
fill="#000000" stroke="none">
<path d="M3488 6992 c-2 -4 -19 -20 -38 -36 -239 -196 -828 -798 -1085 -1110
-22 -27 -50 -60 -63 -75 -31 -34 -281 -354 -356 -455 -100 -133 -240 -341
-351 -521 -61 -99 -77 -127 -162 -278 -58 -104 -163 -315 -203 -407 -17 -41
-41 -95 -52 -120 -32 -73 -35 -81 -72 -180 -59 -162 -138 -426 -152 -509 -3
-14 -11 -57 -19 -96 -17 -85 -22 -114 -30 -184 -4 -30 -8 -62 -10 -73 -22
-114 -22 -510 0 -650 2 -13 9 -57 15 -98 7 -41 21 -113 32 -160 11 -47 21 -92
23 -100 2 -8 15 -53 30 -100 97 -306 254 -601 452 -850 89 -112 306 -330 413
-414 271 -215 580 -375 905 -469 111 -33 137 -39 205 -52 14 -3 48 -9 75 -15
28 -5 70 -12 95 -15 25 -3 61 -8 80 -11 60 -9 421 -12 505 -4 119 12 188 20
205 25 8 2 31 7 50 10 283 46 638 184 907 352 222 139 446 332 606 523 40 47
75 87 78 90 9 7 169 240 169 246 0 2 11 21 24 42 117 186 269 573 302 772 4
24 9 49 19 100 3 14 8 48 11 75 3 28 7 52 9 55 7 12 19 230 18 335 -1 163 -10
269 -38 460 -7 47 -30 165 -50 255 -26 119 -134 452 -192 590 -145 349 -322
683 -536 1010 -56 86 -209 310 -229 335 -4 6 -78 102 -165 215 -86 113 -159
207 -163 210 -3 3 -53 61 -110 130 -58 69 -122 143 -142 165 -20 22 -46 51
-58 65 -128 149 -542 570 -730 742 -203 186 -215 196 -222 180z m1410 -3087
c150 -301 285 -686 316 -905 3 -19 11 -69 18 -110 18 -110 15 -434 -5 -545
-23 -126 -27 -147 -33 -157 -3 -4 -7 -18 -9 -29 -5 -27 -24 -87 -35 -114 -4
-11 -14 -36 -21 -55 -78 -215 -249 -470 -423 -629 -21 -20 -48 -45 -60 -56
-11 -12 -52 -44 -91 -73 -38 -28 -74 -55 -80 -59 -138 -106 -487 -247 -664
-269 -20 -2 -48 -7 -63 -10 -80 -17 -350 -21 -447 -7 l-55 8 65 39 c277 168
590 447 810 721 247 309 444 678 567 1065 27 86 79 293 87 350 4 24 8 48 11
51 2 4 6 33 10 65 3 32 7 60 9 63 1 3 6 44 10 90 4 47 9 94 11 105 3 12 5 109
6 216 0 172 -3 255 -18 379 -2 19 -2 32 0 30 3 -2 40 -76 84 -164z"/>
</g>
</svg>
